<svg xmlns="http://www.w3.org/2000/svg" viewBox="0 0 100 100">
  <!-- Background circle for better visibility -->
  <circle cx="50" cy="50" r="48" fill="#E5E5E5" opacity="0.3"/>
  
  <!-- Broom handle -->
  <rect x="46" y="8" width="8" height="45" rx="4" fill="#8B4513"/>
  <rect x="47" y="6" width="6" height="3" rx="1.5" fill="#A0522D"/>
  
  <!-- Broom bristles base/head -->
  <rect x="32" y="53" width="36" height="6" rx="3" fill="#654321"/>
  
  <!-- Broom bristles (sweeping motion - curved) -->
  <path d="M 28 59 Q 22 68 16 78 Q 10 88 5 98" stroke="#654321" stroke-width="2.5" fill="none" stroke-linecap="round"/>
  <path d="M 32 59 Q 27 66 22 74 Q 17 82 12 90" stroke="#654321" stroke-width="2.5" fill="none" stroke-linecap="round"/>
  <path d="M 36 59 Q 32 64 28 70 Q 24 76 20 82" stroke="#654321" stroke-width="2.5" fill="none" stroke-linecap="round"/>
  <path d="M 40 59 Q 37 63 34 68 Q 31 73 28 78" stroke="#654321" stroke-width="2.5" fill="none" stroke-linecap="round"/>
  <path d="M 44 59 Q 42 62 40 65 Q 38 68 36 71" stroke="#654321" stroke-width="2.5" fill="none" stroke-linecap="round"/>
  <path d="M 48 59 Q 47 61 46 63 Q 45 65 44 67" stroke="#654321" stroke-width="2.5" fill="none" stroke-linecap="round"/>
  <path d="M 52 59 Q 53 61 54 63 Q 55 65 56 67" stroke="#654321" stroke-width="2.5" fill="none" stroke-linecap="round"/>
  <path d="M 56 59 Q 58 62 60 65 Q 62 68 64 71" stroke="#654321" stroke-width="2.5" fill="none" stroke-linecap="round"/>
  <path d="M 60 59 Q 63 64 66 68 Q 69 72 72 78" stroke="#654321" stroke-width="2.5" fill="none" stroke-linecap="round"/>
  <path d="M 64 59 Q 68 66 72 74 Q 76 82 80 90" stroke="#654321" stroke-width="2.5" fill="none" stroke-linecap="round"/>
  <path d="M 68 59 Q 73 68 78 78 Q 83 88 88 98" stroke="#654321" stroke-width="2.5" fill="none" stroke-linecap="round"/>
  
  <!-- Dust particles being swept (small dots) -->
  <circle cx="12" cy="92" r="2" fill="#C0C0C0" opacity="0.9"/>
  <circle cx="18" cy="88" r="1.5" fill="#C0C0C0" opacity="0.8"/>
  <circle cx="8" cy="89" r="1" fill="#C0C0C0" opacity="0.7"/>
  <circle cx="15" cy="95" r="1.5" fill="#C0C0C0" opacity="0.8"/>
  <circle cx="22" cy="91" r="1" fill="#C0C0C0" opacity="0.7"/>
</svg>
